<?xml version="1.0" encoding="utf-8"?>
<!-- Generator: Adobe Illustrator 26.3.1, SVG Export Plug-In . SVG Version: 6.00 Build 0)  -->
<svg version="1.1" id="Layer_5" xmlns="http://www.w3.org/2000/svg" xmlns:xlink="http://www.w3.org/1999/xlink" x="0px" y="0px"
	 viewBox="0 0 1080 1080" style="enable-background:new 0 0 1080 1080;" xml:space="preserve">
<style type="text/css">
	.st0{fill:url(#SVGID_1_);}
	.st1{fill:#FFFFFF;}
</style>
<linearGradient id="SVGID_1_" gradientUnits="userSpaceOnUse" x1="79.0598" y1="540" x2="1000.9402" y2="540">
	<stop  offset="0" style="stop-color:#4A00E0"/>
	<stop  offset="1" style="stop-color:#8E2DE2"/>
</linearGradient>
<circle class="st0" cx="540" cy="540" r="460.94"/>
<g>
	<path class="st1" d="M297.57,631.51l-94.4-47.96c-14.89-7.56-24.27-22.85-24.27-39.55v0c0-16.7,9.38-31.99,24.27-39.55l94.4-47.96
		c15.32-7.78,33.46,3.35,33.46,20.53v0c0,8.87-5.09,16.95-13.1,20.78L221.34,544l96.59,46.19c8,3.83,13.1,11.91,13.1,20.78v0
		C331.03,628.16,312.89,639.29,297.57,631.51z"/>
	<path class="st1" d="M901.1,544L901.1,544c0,16.7-9.38,31.99-24.27,39.55l-94.42,47.96c-15.32,7.78-33.46-3.35-33.46-20.53v-0.02
		c0-8.86,5.08-16.93,13.07-20.76L858.27,544l-96.25-46.19c-7.99-3.83-13.07-11.91-13.07-20.76v-0.02
		c0-17.19,18.14-28.32,33.46-20.53l94.42,47.96C891.72,512.01,901.1,527.3,901.1,544z"/>
	<path class="st1" d="M400.41,441.5h8.84c13.49,0,24.42,10.93,24.42,24.42v0c12.81-20.82,34.82-32.42,60.05-32.42
		c29.63,0,54.44,14,66.05,36.43c13.24-22.43,40.46-36.04,68.89-36.04c46.42,0,78.86,34.44,78.86,83.69v98.9
		c0,16.58-13.44,30.03-30.03,30.03h0c-16.58,0-30.03-13.44-30.03-30.03v-86.88c0-24.43-15.23-42.45-38.05-43.25
		c-23.21,0-38.83,18.01-38.83,43.25v86.88c0,16.58-13.44,30.03-30.03,30.03h0c-16.58,0-30.03-13.44-30.03-30.03v-86.88
		c0-26.03-14.41-43.25-36.84-43.25c-22.82,0-37.65,17.21-37.65,43.25v86.88c0,16.58-13.44,30.03-30.03,30.03h0
		c-16.58,0-30.03-13.44-30.03-30.03V465.92C375.99,452.43,386.92,441.5,400.41,441.5z"/>
</g>
</svg>
