<?xml version="1.0" encoding="utf-8"?>
<!-- Generator: Adobe Illustrator 26.3.1, SVG Export Plug-In . SVG Version: 6.00 Build 0)  -->
<svg version="1.1" xmlns="http://www.w3.org/2000/svg" xmlns:xlink="http://www.w3.org/1999/xlink" x="0px" y="0px"
	 viewBox="0 0 1080 1080" style="enable-background:new 0 0 1080 1080;" xml:space="preserve">
<style type="text/css">
	.st0{fill:url(#SVGID_1_);}
	.st1{fill:url(#SVGID_00000109745116692366567820000013495598395036980923_);}
	.st2{fill:url(#SVGID_00000098185222452882343930000002582296934104869251_);}
</style>
<g id="Layer_1">
</g>
<g id="Layer_5">
</g>
<g id="Layer_4">
	<linearGradient id="SVGID_1_" gradientUnits="userSpaceOnUse" x1="254.9632" y1="574.3708" x2="254.9632" y2="394.3029">
		<stop  offset="0" style="stop-color:#4A00E0"/>
		<stop  offset="1" style="stop-color:#8E2DE2"/>
	</linearGradient>
	<path class="st0" d="M297.57,571.84l-94.4-47.96c-14.89-7.56-24.27-22.85-24.27-39.55v0c0-16.7,9.38-31.99,24.27-39.55l94.4-47.96
		c15.32-7.78,33.46,3.35,33.46,20.53v0c0,8.87-5.09,16.95-13.1,20.78l-96.59,46.19l96.59,46.19c8,3.83,13.1,11.91,13.1,20.78l0,0
		C331.03,568.49,312.89,579.63,297.57,571.84z"/>
</g>
<g id="Layer_3">
	
		<linearGradient id="SVGID_00000083806321220210269860000005078154929573776049_" gradientUnits="userSpaceOnUse" x1="825.0287" y1="574.3726" x2="825.0287" y2="394.3011">
		<stop  offset="0" style="stop-color:#4A00E0"/>
		<stop  offset="1" style="stop-color:#8E2DE2"/>
	</linearGradient>
	<path style="fill:url(#SVGID_00000083806321220210269860000005078154929573776049_);" d="M901.1,484.34L901.1,484.34
		c0,16.7-9.38,31.99-24.27,39.55l-94.42,47.96c-15.32,7.78-33.46-3.35-33.46-20.53v-0.02c0-8.86,5.08-16.93,13.07-20.76l96.25-46.19
		l-96.25-46.19c-7.99-3.83-13.07-11.91-13.07-20.76v-0.02c0-17.19,18.14-28.32,33.46-20.53l94.42,47.96
		C891.72,452.35,901.1,467.64,901.1,484.34z"/>
</g>
<g id="Layer_2">
	
		<linearGradient id="SVGID_00000104678563053779759250000005513713740401303944_" gradientUnits="userSpaceOnUse" x1="541.7523" y1="586.8367" x2="541.7523" y2="373.8333">
		<stop  offset="0" style="stop-color:#4A00E0"/>
		<stop  offset="1" style="stop-color:#8E2DE2"/>
	</linearGradient>
	<path style="fill:url(#SVGID_00000104678563053779759250000005513713740401303944_);" d="M400.41,381.84h8.84
		c13.49,0,24.42,10.93,24.42,24.42v0c12.81-20.82,34.82-32.42,60.05-32.42c29.63,0,54.44,14,66.05,36.43
		c13.24-22.43,40.46-36.04,68.89-36.04c46.42,0,78.86,34.44,78.86,83.69v98.9c0,16.58-13.44,30.03-30.03,30.03h0
		c-16.58,0-30.03-13.44-30.03-30.03v-86.88c0-24.43-15.23-42.45-38.05-43.25c-23.21,0-38.83,18.01-38.83,43.25v86.88
		c0,16.58-13.44,30.03-30.03,30.03h0c-16.58,0-30.03-13.44-30.03-30.03v-86.88c0-26.03-14.41-43.25-36.84-43.25
		c-22.82,0-37.65,17.21-37.65,43.25v86.88c0,16.58-13.44,30.03-30.03,30.03h0c-16.58,0-30.03-13.44-30.03-30.03V406.26
		C375.99,392.77,386.92,381.84,400.41,381.84z"/>
</g>
</svg>
